<svg id="Layer_1" xmlns="http://www.w3.org/2000/svg" viewBox="-240 331.7 130.3 130.3"><style>.st0{fill:#3fa8f4}.st1{enable-background:new}.st2{fill:#fff}</style><path class="st0" d="M-109.7 462L-240 331.7h44.7l85.6 85.5z"/><g class="st1"><path class="st2" d="M-192.1 351.7l-2.1-2.1-1.3 1.6 1.9 2-1 1.2-1.9-2-2 2.5-1.3-1.4 5.2-6.6 3.4 3.5-.9 1.3zM-193.6 360.1c-.7-.7-1.1-1.5-1.1-2.4 0-.8.2-1.6.8-2.4.6-.8 1.3-1.2 2.1-1.2s1.5.3 2.2 1.1c.7.7 1.1 1.5 1.1 2.3 0 .8-.2 1.6-.8 2.3-.6.8-1.3 1.2-2.1 1.2-.8.2-1.5-.1-2.2-.9zm3-3.7c-.3-.3-.6-.4-1-.4-.4.1-.7.3-1.1.7-.7.9-.8 1.7-.1 2.4.6.6 1.3.5 2-.4.8-.9.9-1.7.2-2.3zM-185 362.7c-.1-.3-.2-.5-.4-.7-.3-.3-.6-.4-.9-.3-.3.1-.7.3-1 .7l-1.8 2.2-1.3-1.3 3.7-4.7 1.3 1.3-.7.9c.7-.4 1.3-.4 1.9.2.1.1.2.3.3.4l-1.1 1.3zM-182.9 371l-1.5-1.6.5-3.7-1.9 2.3-1.3-1.3 5.5-6.9 1.3 1.3-3.5 4.4 3-.9 1.5 1.6-3.3.7-.3 4.1zM-173.5 380.7l-1.3-1.3 2.1-2.7c.5-.7.6-1.3.1-1.7-.2-.2-.5-.3-.8-.2-.3.1-.6.3-.8.6l-2.1 2.6-1.3-1.3 2.2-2.7c.5-.7.6-1.2.1-1.7-.2-.2-.5-.3-.8-.3s-.6.3-.8.6l-2.1 2.6-1.3-1.3 3.7-4.7 1.3 1.3-.6.7c.3-.1.7-.1 1 0 .4.1.7.3 1 .6.6.6.8 1.3.5 2.1.8-.3 1.5-.1 2.1.6.9.9.9 2-.1 3.3l-2.1 2.9zM-167.2 383.7l-2.7-2.8c-.5.7-.4 1.5.3 2.2.5.5 1 .8 1.5.9l-.8 1c-.6-.2-1.2-.6-1.8-1.2-.7-.7-1-1.4-1.1-2.3 0-.8.2-1.6.8-2.3.6-.8 1.3-1.2 2.1-1.2s1.4.2 2 .9c.6.6.9 1.3.9 2.1s-.3 1.5-.8 2.2l-.4.5zm-.5-2.1c.5-.7.6-1.3.1-1.8-.2-.2-.5-.3-.8-.3-.3 0-.6.2-.8.4l1.5 1.7zM-163.8 391c-.7-.7-1.1-1.5-1.1-2.4s.2-1.6.8-2.4c.6-.8 1.3-1.2 2.1-1.2s1.5.3 2.2 1.1c.7.7 1.1 1.5 1.1 2.3 0 .8-.2 1.6-.8 2.3-.6.8-1.3 1.2-2.1 1.2-.8.2-1.5-.2-2.2-.9zm3.1-3.8c-.3-.3-.6-.4-1-.4-.4.1-.7.3-1 .7-.7.9-.8 1.7-.1 2.4.6.6 1.3.5 2-.4s.7-1.7.1-2.3zM-156.6 398.2l-1.3-1.3 2.1-2.6c.6-.7.6-1.3.2-1.8-.2-.2-.5-.3-.8-.3-.3 0-.6.2-.8.5l-2.1 2.7-1.3-1.3 3.7-4.7 1.3 1.3-.6.7c.8-.3 1.4-.1 2 .5.9 1 .9 2.1-.2 3.4l-2.2 2.9zM-148 406.3c-.9-.2-1.7-.8-2.6-1.6-.9-1-1.4-2-1.5-3.2-.1-1.1.3-2.2 1.1-3.3.8-1 1.8-1.6 2.9-1.6 1.1 0 2.2.5 3.1 1.5.6.6 1.1 1.3 1.4 2l-1.1 1.4c-.2-.8-.7-1.5-1.3-2.1-.5-.6-1.1-.8-1.8-.8s-1.3.4-1.8 1.1c-.5.7-.8 1.4-.8 2 0 .7.3 1.3.8 1.8.3.3.6.5.9.6l1-1.3-1.2-1.2.9-1.2 2.5 2.6-2.5 3.3zM-146 409.1l-1.3-1.3 3.7-4.7 1.3 1.3-3.7 4.7zm3.7-6c-.2-.2-.3-.5-.4-.8 0-.3.1-.5.2-.7.2-.2.4-.3.6-.3.2 0 .5.1.7.3.2.2.3.5.4.8s0 .5-.2.7c-.2.2-.4.3-.6.3-.3 0-.5-.1-.7-.3zM-142.4 412.8c-.3-.1-.6-.3-1-.7-.9-.9-.9-1.9-.1-3l1.7-2.1-.7-.7.9-1.1.7.7.8-1 1.6.9-1.1 1.4.9 1-.9 1.1-.9-1-1.5 1.9c-.4.5-.4.9-.1 1.3.1.1.3.2.5.3l-.8 1zM-136.5 419l-1.3-1.4 2.1-2.7-2.4-2.5-2.1 2.7-1.3-1.4 5.2-6.6 1.3 1.4-2.1 2.6 2.4 2.5 2.1-2.6 1.3 1.4-5.2 6.6zM-131.3 424.3l-1.3-1.3.6-.7c-.8.2-1.4.1-1.9-.5-1-1-.9-2.2.1-3.5l2.3-2.8 1.3 1.3-2.2 2.7c-.5.7-.6 1.2-.1 1.7.2.2.5.3.8.3.3 0 .6-.2.8-.5l2.1-2.7 1.3 1.3-3.8 4.7zM-128.5 426.2l-.5.5-1.3-1.3 5.5-6.9 1.3 1.3-2.4 3c.8-.2 1.4 0 2 .6.5.6.8 1.2.7 1.9 0 .7-.3 1.4-.9 2.2-.6.8-1.3 1.2-2 1.4-.7.1-1.4-.1-1.9-.7-.4-.6-.6-1.2-.5-2zm1.5-2l-.4.5c-.2.3-.4.6-.4 1s.1.7.4.9c.3.3.6.4 1 .3s.7-.4 1.1-.8c.3-.4.5-.8.5-1.1s-.1-.7-.4-1c-.3-.3-.6-.4-.9-.3s-.6.2-.9.5z"/></g></svg>